<svg width="30" height="30" viewBox="0 0 30 30" fill="none" xmlns="http://www.w3.org/2000/svg">
<g clip-path="url(#clip0_626_16584)">
<path d="M5.66904 4.80179C7.10625 3.54356 8.79434 2.58962 10.6271 2C11.1512 2.64165 11.8165 3.15961 12.5736 3.51536C13.3306 3.87111 14.16 4.0555 15.0001 4.05483C15.8401 4.0555 16.6695 3.87111 17.4266 3.51536C18.1837 3.15961 18.849 2.64165 19.373 2C21.2058 2.58962 22.8939 3.54356 24.3311 4.80179C24.0253 5.56578 23.8994 6.38729 23.9629 7.20532C24.0264 8.02336 24.2776 8.81691 24.6979 9.52707C25.1172 10.2386 25.6953 10.8486 26.3892 11.3116C27.083 11.7746 27.8747 12.0789 28.7055 12.2016C29.0982 14.047 29.0982 15.9516 28.7055 17.797C27.0817 18.0405 25.5839 18.9735 24.6979 20.4716C24.2774 21.1819 24.0261 21.9757 23.9626 22.794C23.8991 23.6123 24.025 24.434 24.3311 25.1982C22.8938 26.456 21.2057 27.4094 19.373 27.9986C18.8488 27.3572 18.1835 26.8395 17.4264 26.484C16.6693 26.1285 15.84 25.9443 15.0001 25.9452C14.16 25.9445 13.3306 26.1289 12.5736 26.4846C11.8165 26.8404 11.1512 27.3583 10.6271 28C8.79446 27.4108 7.10638 26.4573 5.66904 25.1996C5.9751 24.4354 6.10107 23.6136 6.03758 22.7953C5.97408 21.9771 5.72277 21.1833 5.30229 20.4729C4.88276 19.7617 4.30459 19.152 3.61075 18.6892C2.91692 18.2264 2.12528 17.9223 1.29468 17.7997C0.901774 15.9539 0.901774 14.0488 1.29468 12.203C2.12541 12.0802 2.91713 11.776 3.61097 11.313C4.30481 10.8499 4.88292 10.24 5.30229 9.52844C5.72255 8.81828 5.97375 8.02472 6.03724 7.20669C6.10073 6.38865 5.97488 5.56578 5.66904 4.80179ZM17.0998 18.5535C17.5812 18.286 18.0037 17.9281 18.3431 17.5003C18.6824 17.0725 18.9318 16.5834 19.0769 16.061C19.222 15.5387 19.2599 14.9934 19.1886 14.4567C19.1172 13.92 18.9379 13.4023 18.6609 12.9336C18.384 12.4648 18.015 12.0542 17.5751 11.7255C17.1351 11.3967 16.633 11.1562 16.0976 11.0179C15.5621 10.8795 15.004 10.846 14.4553 10.9194C13.9066 10.9927 13.3781 11.1714 12.9004 11.4451C11.9437 11.9932 11.2477 12.8889 10.9643 13.9367C10.6809 14.9844 10.833 16.0993 11.3874 17.0378C11.9419 17.9764 12.8537 18.6625 13.9239 18.9465C14.9941 19.2305 16.1358 19.0892 17.0998 18.5535Z" fill="white"/>
</g>
<defs>
<clipPath id="clip0_626_16584">
<rect width="30" height="30" fill="white"/>
</clipPath>
</defs>
</svg>
