<svg width="30" height="30" viewBox="0 0 30 30" fill="none" xmlns="http://www.w3.org/2000/svg">
<path d="M29 16.7294C29 18.6658 27.8248 20.2353 26.375 20.2353C24.6015 20.2353 24.6403 18.4823 23.3322 18.4823C22.5961 18.4823 22 19.0794 22 19.819V27.2471C22 28.215 21.2163 29 20.25 29H16.3322C15.5961 29 15 28.4029 15 27.6634C15 26.3213 16.75 26.3925 16.75 24.6176C16.75 23.1654 15.1832 21.9882 13.25 21.9882C11.3168 21.9882 9.75 23.1654 9.75 24.6176C9.75 26.3941 11.5 26.3552 11.5 27.6656C11.5 28.4029 10.9039 29 10.1656 29H2.75C1.78367 29 1 28.215 1 27.2471V19.819C1 19.0794 1.59664 18.4823 2.33219 18.4823C3.62773 18.4823 3.60312 20.2353 5.375 20.2353C6.82422 20.2353 8 18.6631 8 16.7294C8 14.7957 6.82422 13.1742 5.375 13.1742C3.60148 13.1742 3.64031 14.9271 2.33219 14.9271C1.59664 14.9271 1 14.3793 1 13.6398V9.71542C1 8.74747 1.78367 8.01178 2.75 8.01178H10.1656C10.9039 7.91537 11.5 7.36757 11.5 6.62805C11.5 5.33032 9.75 5.35497 9.75 3.58011C9.75 2.12791 11.3168 1 13.25 1C15.1832 1 16.75 2.17721 16.75 3.58011C16.75 5.35661 15 5.31772 15 6.62805C15 7.36483 15.5966 7.96248 16.3322 7.96248H20.25C21.2163 7.96248 22 8.74747 22 9.66612V13.5905C22 14.3273 22.5966 14.925 23.3322 14.925C24.6277 14.925 24.6031 13.172 26.375 13.172C27.8242 13.1742 29 14.7957 29 16.7294Z" fill="white"/>
</svg>
