<svg width="30" height="30" viewBox="0 0 30 30" fill="none" xmlns="http://www.w3.org/2000/svg">
<path d="M24.5 2H5.75C3.67871 2 2 3.6793 2 5.75V24.5C2 26.5707 3.67871 28.25 5.75 28.25H24.5C26.5713 28.25 28.25 26.5707 28.25 24.5V5.75C28.25 3.6793 26.5684 2 24.5 2ZM22.1562 18.4062C22.1562 19.4428 21.3178 20.2812 20.2812 20.2812C19.2447 20.2812 18.4062 19.4428 18.4062 18.4062V14.498L11.293 21.6113C10.9297 21.9746 10.4492 22.1562 9.96875 22.1562C9.48828 22.1562 9.00898 21.9731 8.64336 21.6069C7.91094 20.8745 7.91094 19.688 8.64336 18.9556L15.7578 11.8438H11.8438C10.8072 11.8438 9.96875 11.0053 9.96875 9.96875C9.96875 8.93223 10.8072 8.09375 11.8438 8.09375H20.2812C21.3178 8.09375 22.1562 8.93223 22.1562 9.96875V18.4062Z" fill="white"/>
</svg>
