<svg width="48" height="48" viewBox="0 0 48 48" fill="none" xmlns="http://www.w3.org/2000/svg">
<path d="M29.9341 15.1266H36.9905C36.904 15.0157 36.8242 14.9025 36.7243 14.8027L29.151 7.22714C29.0489 7.12731 28.9358 7.04745 28.8249 6.96094V14.0174C28.8249 14.3116 28.9417 14.5937 29.1498 14.8017C29.3578 15.0097 29.6399 15.1266 29.9341 15.1266ZM39.5926 39.852L34.2376 34.4992C35.0118 33.4122 35.4799 32.0901 35.4799 30.6548C35.4799 26.9857 32.494 23.9999 28.8249 23.9999C25.1558 23.9999 22.1699 26.9857 22.1699 30.6548C22.1699 34.324 25.1558 37.3098 28.8249 37.3098C30.2601 37.3098 31.58 36.844 32.6692 36.0676L38.0243 41.4204C38.2335 41.6224 38.5136 41.7342 38.8045 41.7317C39.0953 41.7292 39.3735 41.6125 39.5791 41.4069C39.7848 41.2012 39.9014 40.923 39.9039 40.6322C39.9065 40.3414 39.7947 40.0612 39.5926 39.852ZM28.8249 35.0915C26.3781 35.0915 24.3882 33.1017 24.3882 30.6548C24.3882 28.208 26.3781 26.2182 28.8249 26.2182C31.2717 26.2182 33.2615 28.208 33.2615 30.6548C33.2615 33.1017 31.2717 35.0915 28.8249 35.0915Z" fill="#174F77"/>
<path d="M28.8247 39.5283C23.9311 39.5283 19.9514 35.5486 19.9514 30.655C19.9514 25.7613 23.9311 21.7817 28.8247 21.7817C33.7183 21.7817 37.698 25.7613 37.698 30.655V17.345H29.9339C28.0993 17.345 26.6064 15.8521 26.6064 14.0175V6.25342H14.4056C12.5711 6.25342 11.0781 7.74635 11.0781 9.5809V38.4191C11.0781 40.2537 12.5711 41.7466 14.4056 41.7466H34.3705C34.6278 41.7466 34.8763 41.7111 35.1181 41.6534L32.2875 38.8228C31.1926 39.2889 30.0147 39.5289 28.8247 39.5283Z" fill="#174F77"/>
</svg>
