<svg width="72" height="72" viewBox="0 0 72 72" fill="none" xmlns="http://www.w3.org/2000/svg">
<rect width="72" height="72" rx="36" fill="url(#paint0_linear_365_9578)"/>
<path d="M32.6471 37.7892C29.7559 39.091 27.9365 41.9838 27.4473 44.7265C27.3804 45.1921 27.2173 45.6396 26.9679 46.0419C26.7184 46.4443 26.3879 46.7932 25.9962 47.0675C25.6668 47.2773 25.4013 47.5695 25.2273 47.9134C25.0532 48.2573 24.9771 48.6404 25.0068 49.0228C25.0659 49.573 25.3349 50.0814 25.7604 50.4475C26.1859 50.8136 26.7369 51.0106 27.3044 50.9996H44.6956C45.2631 51.0106 45.8141 50.8136 46.2396 50.4475C46.6651 50.0814 46.9341 49.573 46.9932 49.0228C47.024 48.6415 46.9496 48.259 46.7775 47.9152C46.6055 47.5713 46.3421 47.2787 46.0148 47.0675C45.6187 46.7857 45.285 46.4288 45.0338 46.0182C44.7825 45.6077 44.6189 45.152 44.5527 44.6783C44.058 41.9998 42.2716 39.1499 39.4519 37.8321C39.0308 37.656 38.6797 37.3515 38.4515 36.9643C38.318 36.7266 38.2355 36.4649 38.209 36.1951C38.1825 35.9254 38.2126 35.6532 38.2974 35.3951C38.3823 35.1371 38.5201 34.8985 38.7025 34.694C38.8849 34.4895 39.108 34.3232 39.3584 34.2054C42.2496 32.9037 44.069 30.0109 44.5582 27.2681C44.6251 26.8026 44.7882 26.3551 45.0376 25.9527C45.2871 25.5503 45.6176 25.2014 46.0093 24.9271C46.3368 24.7171 46.6007 24.4256 46.7737 24.0827C46.9467 23.7399 47.0225 23.3582 46.9932 22.9772C46.9341 22.427 46.6651 21.9186 46.2396 21.5525C45.8141 21.1864 45.2631 20.9894 44.6956 21.0004H27.3044C26.7369 20.9894 26.1859 21.1864 25.7604 21.5525C25.3349 21.9186 25.0659 22.427 25.0068 22.9772C24.976 23.3585 25.0504 23.741 25.2225 24.0848C25.3945 24.4287 25.6579 24.7213 25.9852 24.9325C26.3813 25.2143 26.715 25.5712 26.9662 25.9818C27.2175 26.3923 27.3811 26.848 27.4473 27.3217C27.942 30.0002 29.7284 32.8501 32.5481 34.1679C32.9692 34.344 33.3203 34.6485 33.5485 35.0357C33.6813 35.2729 33.7634 35.5338 33.7898 35.8027C33.8162 36.0717 33.7864 36.343 33.7021 36.6004C33.6178 36.8578 33.4809 37.0958 33.2996 37.3002C33.1182 37.5045 32.8963 37.6709 32.6471 37.7892ZM32.5042 28.5002C32.1255 28.5031 31.7563 28.3854 31.4527 28.1649C31.149 27.9444 30.9276 27.6333 30.8222 27.2788C30.7672 27.0913 30.7288 26.9092 30.6958 26.7431C30.5954 26.1912 30.4313 25.652 30.2066 25.136C30.1545 25.0376 30.1298 24.9276 30.1351 24.8169C30.1403 24.7063 30.1753 24.5989 30.2366 24.5056C30.2978 24.4123 30.3831 24.3363 30.484 24.2852C30.5848 24.2341 30.6977 24.2098 30.8112 24.2146H41.1888C41.2965 24.2134 41.4028 24.2384 41.4981 24.2873C41.5935 24.3362 41.6748 24.4074 41.7348 24.4946C41.7948 24.5818 41.8316 24.6822 41.8418 24.7867C41.852 24.8912 41.8354 24.9965 41.7934 25.0932C41.5688 25.6092 41.4047 26.1483 41.3042 26.7003C41.2712 26.8824 41.2273 27.0645 41.1778 27.236C41.0805 27.5984 40.8626 27.9191 40.5582 28.1479C40.2538 28.3766 39.8802 28.5006 39.4958 28.5002H32.5042ZM34.0322 40.7088C34.7879 40.3669 35.4492 39.8545 35.9615 39.2142H36.0385C36.5508 39.8545 37.2121 40.3669 37.9678 40.7088C39.1936 41.3215 40.1645 42.3283 40.7161 43.5587C40.7698 43.6647 40.7952 43.7822 40.7899 43.9003C40.7845 44.0184 40.7487 44.1333 40.6856 44.2343C40.6226 44.3353 40.5344 44.4191 40.4292 44.478C40.324 44.5369 40.2053 44.569 40.084 44.5712H31.916C31.7933 44.5717 31.6726 44.5416 31.5651 44.4838C31.4577 44.4261 31.3672 44.3425 31.3023 44.2411C31.2373 44.1396 31.2 44.0237 31.1939 43.9043C31.1878 43.7849 31.2131 43.6659 31.2674 43.5587C31.8232 42.3257 32.8002 41.3186 34.0322 40.7088Z" fill="white"/>
<defs>
<linearGradient id="paint0_linear_365_9578" x1="-46.125" y1="79.2" x2="37.6374" y2="-47.0803" gradientUnits="userSpaceOnUse">
<stop stop-color="#3899F3"/>
<stop offset="1" stop-color="#00F7D7"/>
</linearGradient>
</defs>
</svg>
