<svg width="72" height="72" viewBox="0 0 72 72" fill="none" xmlns="http://www.w3.org/2000/svg">
<rect width="72" height="72" rx="36" fill="url(#paint0_linear_365_9582)"/>
<path fill-rule="evenodd" clip-rule="evenodd" d="M27.5147 46.4853C22.8284 41.799 22.8284 34.201 27.5147 29.5147C32.201 24.8284 39.799 24.8284 44.4853 29.5147C49.1716 34.201 49.1716 41.799 44.4853 46.4853L47.3137 49.3137C53.5621 43.0653 53.5621 32.9347 47.3137 26.6863C41.0653 20.4379 30.9347 20.4379 24.6863 26.6863C18.4379 32.9347 18.4379 43.0653 24.6863 49.3137L27.5147 46.4853ZM37.8966 36.1213C36.725 34.9497 34.8256 34.9497 33.654 36.1213C32.4824 37.2928 30.1184 43.8994 30.1184 43.8994C30.1184 43.8994 36.725 41.5355 37.8966 40.3639C39.0682 39.1923 39.0682 37.2928 37.8966 36.1213Z" fill="white"/>
<defs>
<linearGradient id="paint0_linear_365_9582" x1="-46.125" y1="79.2" x2="37.6374" y2="-47.0803" gradientUnits="userSpaceOnUse">
<stop stop-color="#63CD23"/>
<stop offset="1" stop-color="#1DF1D8"/>
</linearGradient>
</defs>
</svg>
