<svg width="64" height="64" viewBox="0 0 64 64" fill="none" xmlns="http://www.w3.org/2000/svg">
<circle cx="32" cy="32" r="32" fill="#174F77"/>
<g clip-path="url(#clip0_365_9000)">
<path opacity="0.6" fill-rule="evenodd" clip-rule="evenodd" d="M12.1533 37.3523C12.1912 37.7244 12.3278 37.8246 12.4003 37.8896H17.1449L15.1036 35.7751L14.4161 36.1476C14.1828 36.2684 13.9404 36.4055 13.6746 36.5472C13.4157 36.6825 12.9572 36.9252 12.1533 37.3523Z" fill="white" fill-opacity="0.4"/>
<path fill-rule="evenodd" clip-rule="evenodd" d="M12.1538 37.3548C12.1538 37.3548 13.4071 36.6874 13.6557 36.56C14.0903 36.3293 15.1122 35.7779 15.1122 35.7779L14.1196 34.804C13.9344 34.9485 13.7895 35.1431 13.5869 35.359L12.5073 36.5333C12.2686 36.7707 12.1444 37.054 12.1538 37.3548Z" fill="white" fill-opacity="0.6"/>
<path fill-rule="evenodd" clip-rule="evenodd" d="M25.1905 28.8006L23.6005 28.803L23.6018 31.3219C24.1364 31.3483 24.7957 31.342 25.3332 31.3269C25.8861 31.3113 26.2503 31.0301 26.4446 30.7111C26.8612 30.0265 26.5741 28.802 25.1905 28.8006ZM28.506 32.6342C28.2607 32.9363 27.6156 33.4832 27.1652 33.6455L29.5862 37.2182C29.7491 37.4614 29.7436 37.5509 29.726 37.8361C29.7237 37.8741 29.7211 37.9156 29.7187 37.9614H26.5741C26.4623 37.7594 26.3362 37.5631 26.2127 37.3706C26.1243 37.2328 26.0371 37.097 25.9573 36.9626L24.0584 33.9539H23.6015V37.9593L20.6902 37.9627L20.6749 26.0225C21.2802 25.9812 24.6183 26.0069 25.4034 26.0201C29.2035 26.0848 30.6444 29.9911 28.506 32.6342ZM34.0365 28.8704L34.0475 35.1919C34.5327 35.2427 35.562 35.2207 36.0727 35.1972C39.915 35.0193 39.8809 29.0438 36.0413 28.8667C35.5432 28.844 34.512 28.8175 34.0365 28.8704ZM34.6427 37.9658C33.4914 37.9733 31.2954 37.9877 31.1096 37.9442L31.1169 26.1308C31.5029 26.0858 32.0846 26.0997 32.6029 26.112C32.8247 26.1173 33.035 26.1223 33.2133 26.1223C33.5262 26.1223 33.8365 26.1179 34.1437 26.1135C35.8255 26.0895 37.4134 26.0667 38.8174 26.781C42.8468 28.8329 42.9075 35.2532 38.8101 37.3077C37.6721 37.8784 36.7059 37.9624 35.2645 37.9624C35.1558 37.9624 34.9326 37.9639 34.6432 37.9658L34.6427 37.9658ZM46.2145 37.9997H48.3356L52.5268 27.7207C52.5744 27.5996 52.6269 27.478 52.679 27.3572C52.8688 26.9175 53.0543 26.4875 52.9867 26.1285L50.0162 26.1229L47.3304 33.2786L44.5933 26.1258L41.6099 26.1226C41.5339 26.6083 41.7344 27.0572 41.9174 27.4669C41.9565 27.5544 41.9948 27.6402 42.0295 27.7241L46.2145 37.9997ZM12.5484 36.4913C12.3457 36.7131 12.1425 36.9473 12.1525 37.3525C12.1715 37.5208 12.2234 37.7471 12.4072 37.8909C11.9989 37.7781 12.0013 37.1913 12.0037 36.62C12.0039 36.5765 12.0041 36.5331 12.0041 36.49V31.2418C12.0041 30.3231 11.9723 29.9859 12.0858 29.7072C12.1752 29.4876 12.3549 29.3042 12.7115 28.9008L14.634 26.8326L13.9083 26.0793L19.044 26.073L19.0574 30.9937L18.2732 30.3297L12.5484 36.4913Z" fill="white"/>
</g>
<defs>
<clipPath id="clip0_365_9000">
<rect width="41" height="12" fill="white" transform="translate(12 26)"/>
</clipPath>
</defs>
</svg>
