<svg width="32" height="32" viewBox="0 0 32 32" fill="none" xmlns="http://www.w3.org/2000/svg">
<path fill-rule="evenodd" clip-rule="evenodd" d="M14.7392 29.3851H14.4141C13.9285 29.3851 13.5348 28.9916 13.5348 28.5058C13.5348 25.8667 10.3437 24.545 8.4776 26.4111C8.13429 26.7544 7.57741 26.7544 7.2341 26.4111L5.34112 24.5182C4.99776 24.1748 4.99776 23.618 5.34112 23.2747C7.2049 21.4109 5.88232 18.2175 3.24637 18.2175C2.76065 18.2174 2.36719 17.8237 2.36719 17.3382V14.6613C2.36719 14.1757 2.76065 13.782 3.24643 13.782C5.88232 13.782 7.20495 10.5886 5.34118 8.72483C4.99782 8.38153 4.99782 7.82465 5.34118 7.48134L7.23416 5.58836C7.57746 5.245 8.13435 5.245 8.47765 5.58836C10.3414 7.45219 13.5349 6.12962 13.5349 3.49361C13.5349 3.00783 13.9286 2.61437 14.4141 2.61437H14.7394C14.6764 2.79227 14.6443 2.97964 14.6444 3.16837V10.5023C12.0785 11.0167 10.1455 13.2824 10.1455 15.9997C10.1455 18.717 12.0785 20.9827 14.6444 21.4971V28.8313C14.6442 29.0199 14.6763 29.2072 14.7392 29.3851ZM24.7584 7.99683H29.5844C29.5578 7.93897 29.5201 7.88583 29.4714 7.83756L24.3735 2.77236C24.3275 2.72596 24.2736 2.68819 24.2142 2.66086V7.45269C24.2142 7.75238 24.4587 7.99683 24.7584 7.99683ZM16.3069 29.3855C16.0016 29.3855 15.7527 29.1366 15.7527 28.8313V3.16842C15.7527 2.86319 16.0016 2.61426 16.3069 2.61426H23.1059V7.45269C23.1059 8.36407 23.847 9.10516 24.7584 9.10516H29.6322V28.8413C29.6322 29.141 29.3877 29.3855 29.088 29.3855H16.3069ZM21.6472 7.88572H18.4971C18.191 7.88572 17.9429 8.13382 17.9429 8.43988C17.9429 8.74595 18.191 8.99405 18.4971 8.99405H21.6472C21.9533 8.99405 22.2014 8.74595 22.2014 8.43988C22.2014 8.13382 21.9532 7.88572 21.6472 7.88572ZM25.638 11.8876H18.497C18.191 11.8876 17.9429 12.1357 17.9429 12.4417C17.9429 12.7478 18.191 12.9959 18.497 12.9959H25.6379C25.944 12.9959 26.1921 12.7478 26.1921 12.4417C26.1922 12.1357 25.944 11.8876 25.638 11.8876ZM25.638 15.8898H18.497C18.191 15.8898 17.9429 16.1379 17.9429 16.4439C17.9429 16.75 18.191 16.9981 18.497 16.9981H25.6379C25.944 16.9981 26.1921 16.75 26.1921 16.4439C26.1922 16.1379 25.944 15.8898 25.638 15.8898ZM25.638 19.8916H18.497C18.191 19.8916 17.9429 20.1397 17.9429 20.4458C17.9429 20.7519 18.191 21 18.497 21H25.6379C25.944 21 26.1921 20.7519 26.1921 20.4458C26.1922 20.1398 25.944 19.8916 25.638 19.8916ZM25.638 23.8938H18.497C18.191 23.8938 17.9429 24.1419 17.9429 24.448C17.9429 24.7541 18.191 25.0022 18.497 25.0022H25.6379C25.944 25.0022 26.1921 24.7541 26.1921 24.448C26.1922 24.142 25.944 23.8938 25.638 23.8938Z" fill="white"/>
</svg>
