<svg width="32" height="32" viewBox="0 0 32 32" fill="none" xmlns="http://www.w3.org/2000/svg">
<path d="M22.6582 13.8204C22.6582 14.4414 23.1635 14.9466 23.7845 14.9466C24.4055 14.9466 24.9108 14.4414 24.9108 13.8204V12.2635H28.8369V3.16162H18.7321V6.33541H19.7464C20.3674 6.33541 20.8727 6.84066 20.8727 7.46167C20.8727 8.08267 20.3674 8.58793 19.7464 8.58793H18.7321V12.2634H22.6582V13.8204ZM5.33092 17.9288C5.33092 16.6165 6.39865 15.5487 7.71102 15.5487C9.0234 15.5487 10.0911 16.6165 10.0911 17.9288V18.2319H12.2619V14.8073H13.8189C14.4399 14.8073 14.9451 14.3021 14.9451 13.681C14.9451 13.06 14.4399 12.5548 13.8189 12.5548H12.2619V9.13019H3.16016V18.232H5.33087V17.9288H5.33092Z" fill="white"/>
<path d="M11.9589 26.6679C10.6465 26.6679 9.57876 25.6002 9.57876 24.2879C9.57876 22.9755 10.6465 21.9078 11.9589 21.9078H12.2619V19.7369H8.58651V17.9292C8.58651 17.4465 8.19376 17.0537 7.71102 17.0537C7.22829 17.0537 6.83554 17.4465 6.83554 17.9292V19.7369H3.16016V28.8387H12.2619V26.668H11.9589V26.6679Z" fill="white"/>
<path d="M19.4443 20.5413C19.4443 21.1623 18.9391 21.6676 18.3181 21.6676C17.697 21.6676 17.1918 21.1623 17.1918 20.5413V18.9844H13.7672V23.4121H11.9595C11.4767 23.4121 11.084 23.8048 11.084 24.2876C11.084 24.7703 11.4767 25.163 11.9595 25.163H13.7672V28.8384H22.869V18.9844H19.4444V20.5413H19.4443Z" fill="white"/>
</svg>
