<svg width="32" height="32" viewBox="0 0 32 32" fill="none" xmlns="http://www.w3.org/2000/svg">
<path d="M16.0015 6.67249C17.7175 6.67249 19.1085 5.28144 19.1085 3.5655C19.1085 1.84955 17.7175 0.458496 16.0015 0.458496C14.2856 0.458496 12.8945 1.84955 12.8945 3.5655C12.8945 5.28144 14.2856 6.67249 16.0015 6.67249Z" fill="white"/>
<path d="M10.4134 23.9001C9.53637 24.839 8.28882 25.4276 6.9057 25.4276C5.52257 25.4276 4.27503 24.839 3.39801 23.9001C2.27689 24.6631 1.53906 25.9493 1.53906 27.4047V28.5346C1.53906 29.0025 1.91846 29.3819 2.38643 29.3819H11.425C11.8929 29.3819 12.2723 29.0025 12.2723 28.5346V27.4047C12.2723 25.9493 11.5345 24.6631 10.4134 23.9001ZM28.6035 23.9001C27.7264 24.839 26.4789 25.4276 25.0958 25.4276C23.7126 25.4276 22.4651 24.839 21.5881 23.9001C20.467 24.6631 19.7291 25.9493 19.7291 27.4047V28.5346C19.7291 29.0025 20.1085 29.3819 20.5765 29.3819H29.615C30.083 29.3819 30.4624 29.0025 30.4624 28.5346V27.4047C30.4624 25.9493 29.7246 24.6631 28.6035 23.9001ZM22.0296 21.1258C22.2694 22.602 23.5528 23.7328 25.0958 23.7328C26.809 23.7328 28.2028 22.339 28.2028 20.6258C28.2028 18.9126 26.809 17.5188 25.0958 17.5188C23.812 17.5188 22.7075 18.3016 22.2346 19.4149L18.5403 18.2676C18.4996 17.2058 17.8048 16.3092 16.8481 15.9698V12.3217H20.52C20.988 12.3217 21.3674 11.9423 21.3674 11.4743V10.3445C21.3674 8.88905 20.6295 7.60287 19.5084 6.83984C18.6314 7.77872 17.3839 8.3673 16.0007 8.3673C14.6176 8.3673 13.3701 7.77872 12.493 6.83984C11.3719 7.60287 10.6341 8.88905 10.6341 10.3445V11.4743C10.6341 11.9423 11.0135 12.3217 11.4815 12.3217H15.1534V15.9698C14.1966 16.3092 13.5019 17.2058 13.4611 18.2676L9.76691 19.4149C9.29396 18.3016 8.18951 17.5188 6.9057 17.5188C5.1925 17.5188 3.7987 18.9126 3.7987 20.6258C3.7987 22.339 5.1925 23.7328 6.9057 23.7328C8.44869 23.7328 9.73205 22.602 9.97191 21.1258L13.9641 19.886C14.4281 20.5061 15.1683 20.9083 16.0007 20.9083C16.8331 20.9083 17.5734 20.5061 18.0373 19.8859L22.0296 21.1258Z" fill="white"/>
</svg>
