<svg width="30" height="30" viewBox="0 0 30 30" fill="none" xmlns="http://www.w3.org/2000/svg">
<g clip-path="url(#clip0_626_16626)">
<path d="M6.09156 5.75H23.9091C24.1063 5.74997 24.3007 5.79662 24.4765 5.88613C24.6523 5.97564 24.8043 6.10546 24.9203 6.265L29.6991 12.835C29.784 12.9519 29.8258 13.0946 29.8174 13.2389C29.809 13.3832 29.7508 13.52 29.6528 13.6262L15.4591 29.0025C15.4005 29.0657 15.3296 29.1162 15.2506 29.1507C15.1717 29.1852 15.0865 29.203 15.0003 29.203C14.9141 29.203 14.8289 29.1852 14.75 29.1507C14.671 29.1162 14.6001 29.0657 14.5416 29.0025L0.347807 13.6275C0.249495 13.5212 0.191138 13.3841 0.182703 13.2395C0.174267 13.095 0.216277 12.952 0.301557 12.835L5.08031 6.265C5.19628 6.10546 5.34836 5.97564 5.52412 5.88613C5.69988 5.79662 5.89432 5.74997 6.09156 5.75Z" fill="white"/>
</g>
<defs>
<clipPath id="clip0_626_16626">
<rect width="30" height="30" fill="white"/>
</clipPath>
</defs>
</svg>
