<svg width="30" height="30" viewBox="0 0 30 30" fill="none" xmlns="http://www.w3.org/2000/svg">
<g clip-path="url(#clip0_626_16593)">
<path d="M8.95781 9C8.95781 5.68641 11.6859 3 14.9578 3C18.3141 3 21 5.68641 21 9C21 12.3141 18.3141 15 14.9578 15C11.6859 15 8.95781 12.3141 8.95781 9ZM1.83281 6C2.91047 6 3.70781 6.83953 3.70781 7.875V15.3844C3.70781 16.1813 4.06594 16.9453 4.62844 17.5078L7.02188 19.9031C7.41094 20.2922 8.02031 20.3484 8.475 20.0484C9.07969 19.6406 9.16406 18.7875 8.65313 18.2719L6.44062 16.0594C5.85469 15.4734 5.85469 14.5266 6.44062 13.9406C7.02656 13.3547 7.97344 13.3547 8.55938 13.9406L11.9625 17.3391C12.9469 18.3234 13.5 19.6594 13.5 21.0516V24.75C13.5 25.9922 12.4922 27 11.25 27H8.12344C7.32656 27 6.5625 26.6859 6 26.1234L1.31813 21.4406C0.473906 20.5969 0 19.4109 0 18.2578V7.875C0 6.83953 0.839531 6 1.875 6H1.83281ZM30 7.875V18.2578C30 19.4109 29.5266 20.5969 28.6828 21.4406L24 26.1234C23.3953 26.6859 22.6734 27 21.8766 27H18.75C17.5078 27 16.5 25.9922 16.5 24.75V21.0516C16.5 19.6594 17.0531 18.3234 18.0375 17.3391L21.4406 13.9406C22.0266 13.3547 22.9734 13.3547 23.5594 13.9406C24.1453 14.5266 24.1453 15.4734 23.5594 16.0594L21.3469 18.2719C20.8359 18.7875 20.9203 19.6406 21.525 20.0484C21.9797 20.3484 22.5891 20.2922 22.9781 19.9031L25.3734 17.5078C25.9359 16.9453 26.25 16.1813 26.25 15.3844V7.83281C26.25 6.83953 27.0891 5.95781 28.125 5.95781C29.1609 5.95781 30 6.83953 30 7.83281V7.875Z" fill="white"/>
</g>
<defs>
<clipPath id="clip0_626_16593">
<rect width="30" height="30" fill="white"/>
</clipPath>
</defs>
</svg>
