<svg width="48" height="48" viewBox="0 0 48 48" fill="none" xmlns="http://www.w3.org/2000/svg">
<path d="M18.8331 7.39404H29.1688C30.5008 7.39404 31.5805 8.47378 31.5805 9.80571C31.5805 11.1376 30.5008 12.2174 29.1688 12.2174H18.8331C17.5012 12.2174 16.4214 11.1376 16.4214 9.80571C16.4214 8.47378 17.5012 7.39404 18.8331 7.39404ZM18.8331 16.857H29.1688C30.5008 16.857 31.5805 17.9367 31.5805 19.2686C31.5805 20.6006 30.5008 21.6803 29.1688 21.6803H18.8331C17.5012 21.6803 16.4214 20.6006 16.4214 19.2686C16.4214 17.9367 17.5012 16.857 18.8331 16.857ZM18.8331 26.3199H29.1688C30.5008 26.3199 31.5805 27.3997 31.5805 28.7316C31.5805 30.0635 30.5008 31.1433 29.1688 31.1433H18.8331C17.5012 31.1433 16.4214 30.0635 16.4214 28.7316C16.4214 27.3997 17.5012 26.3199 18.8331 26.3199ZM18.8331 35.7829H29.1688C30.5008 35.7829 31.5805 36.8626 31.5805 38.1945C31.5805 39.5265 30.5008 40.6062 29.1688 40.6062H18.8331C17.5012 40.6062 16.4214 39.5265 16.4214 38.1945C16.4214 36.8626 17.5012 35.7829 18.8331 35.7829ZM12.1264 20.3022C8.94754 20.3022 6.36133 17.7161 6.36133 14.5372C6.36133 11.3583 8.94754 8.77214 12.1264 8.77214H14.476C14.3972 9.10419 14.3543 9.44996 14.3543 9.80571C14.3543 10.1615 14.3972 10.5072 14.476 10.8393H12.1264C10.0874 10.8393 8.42847 12.4982 8.42847 14.5372C8.42847 16.5762 10.0874 18.2351 12.1264 18.2351H14.476C14.3972 18.5671 14.3543 18.9129 14.3543 19.2686C14.3543 19.6244 14.3972 19.9701 14.476 20.3022H12.1264ZM35.8756 18.2351C39.0544 18.2351 41.6406 20.8213 41.6406 24.0001C41.6406 27.179 39.0544 29.7652 35.8756 29.7652H33.526C33.6047 29.4331 33.6477 29.0874 33.6477 28.7316C33.6477 28.3759 33.6047 28.0301 33.526 27.698H35.8756C37.9146 27.698 39.5735 26.0392 39.5735 24.0001C39.5735 21.9611 37.9146 20.3022 35.8756 20.3022H33.526C33.6047 19.9701 33.6477 19.6244 33.6477 19.2686C33.6477 18.9129 33.6047 18.5671 33.526 18.2351H35.8756ZM38.1118 37.1609L37.4645 36.5137C37.0609 36.11 37.0609 35.4556 37.4645 35.052C37.8682 34.6483 38.5225 34.6483 38.9262 35.052L41.3379 37.4636C41.7415 37.8673 41.7415 38.5217 41.3379 38.9253L38.9262 41.337C38.5225 41.7406 37.8682 41.7406 37.4645 41.337C37.0609 40.9334 37.0609 40.279 37.4645 39.8753L38.1118 39.2281H33.526C33.6047 38.896 33.6477 38.5503 33.6477 38.1945C33.6477 37.8388 33.6047 37.493 33.526 37.1609H38.1118ZM12.1264 27.698H14.476C14.3972 28.0301 14.3543 28.3759 14.3543 28.7316C14.3543 29.0874 14.3972 29.4331 14.476 29.7652H12.1264C10.0874 29.7652 8.42847 31.424 8.42847 33.463C8.42847 35.5021 10.0874 37.1609 12.1264 37.1609H14.476C14.3972 37.493 14.3543 37.8388 14.3543 38.1945C14.3543 38.5503 14.3972 38.896 14.476 39.2281H12.1264C8.94754 39.2281 6.36133 36.6419 6.36133 33.463C6.36133 30.2842 8.94754 27.698 12.1264 27.698Z" fill="#174F77"/>
</svg>
