<svg width="48" height="48" viewBox="0 0 48 48" fill="none" xmlns="http://www.w3.org/2000/svg">
<path d="M26.7721 23.8479V24.1521C26.7721 24.2707 26.725 24.3843 26.6412 24.4681C26.5574 24.5519 26.4438 24.599 26.3252 24.599H23.5503C23.4318 24.599 23.3182 24.5519 23.2344 24.4681C23.1506 24.3843 23.1035 24.2707 23.1034 24.1521V23.8479C23.1035 23.7294 23.1506 23.6158 23.2344 23.532C23.3182 23.4482 23.4318 23.4011 23.5503 23.401H26.3252C26.3839 23.401 26.442 23.4126 26.4963 23.435C26.5505 23.4575 26.5998 23.4904 26.6413 23.5319C26.6828 23.5734 26.7157 23.6227 26.7381 23.6769C26.7606 23.7311 26.7721 23.7892 26.7721 23.8479ZM26.7721 11.4535V11.8623C26.7721 11.9899 26.7155 12.1091 26.6223 12.1962C25.2912 13.44 25.6871 16.4327 23.8122 17.8312C23.5199 18.0491 23.1036 17.8333 23.1036 17.4688V17.06C23.1036 16.9324 23.1602 16.8132 23.2534 16.7262C24.5845 15.4824 24.1886 12.4897 26.0636 11.0912C26.3557 10.8732 26.7721 11.089 26.7721 11.4535ZM26.7721 36.1376V36.5465C26.7721 36.911 26.3558 37.1268 26.0636 36.9088C24.1881 35.5103 24.5844 32.5175 23.2534 31.2738C23.1602 31.1867 23.1036 31.0675 23.1036 30.9399V30.531C23.1036 30.1665 23.5199 29.9507 23.8122 30.1687C25.6876 31.5672 25.2914 34.5599 26.6223 35.8037C26.7155 35.8908 26.7721 36.01 26.7721 36.1376ZM20.1087 13.8926H7.83008C6.83925 13.8926 6.0332 14.6986 6.0332 15.6895V32.3105C6.0332 33.3014 6.83925 34.1074 7.83008 34.1074H20.1087C21.0996 34.1074 21.9056 33.3014 21.9056 32.3105V15.6895C21.9056 14.6986 21.0996 13.8926 20.1087 13.8926ZM15.2422 29.3906H9.70182C9.54297 29.3906 9.39062 29.3275 9.2783 29.2152C9.16597 29.1029 9.10286 28.9505 9.10286 28.7917C9.10286 28.6328 9.16597 28.4805 9.2783 28.3681C9.39062 28.2558 9.54297 28.1927 9.70182 28.1927H15.2422C15.401 28.1927 15.5534 28.2558 15.6657 28.3681C15.778 28.4805 15.8411 28.6328 15.8411 28.7917C15.8411 28.9505 15.778 29.1029 15.6657 29.2152C15.5534 29.3275 15.401 29.3906 15.2422 29.3906ZM9.10286 24C9.10286 23.8411 9.16597 23.6888 9.2783 23.5765C9.39062 23.4641 9.54297 23.401 9.70182 23.401H10.3974C10.5563 23.401 10.7086 23.4641 10.821 23.5765C10.9333 23.6888 10.9964 23.8411 10.9964 24C10.9964 24.1589 10.9333 24.3112 10.821 24.4235C10.7086 24.5359 10.5563 24.599 10.3974 24.599H9.70182C9.54297 24.599 9.39062 24.5359 9.2783 24.4235C9.16597 24.3112 9.10286 24.1589 9.10286 24ZM18.237 24.599H13.3149C13.156 24.599 13.0037 24.5359 12.8914 24.4235C12.779 24.3112 12.7159 24.1589 12.7159 24C12.7159 23.8411 12.779 23.6888 12.8914 23.5765C13.0037 23.4641 13.156 23.401 13.3149 23.401H18.237C18.3958 23.401 18.5482 23.4641 18.6605 23.5765C18.7728 23.6888 18.8359 23.8411 18.8359 24C18.8359 24.1589 18.7728 24.3112 18.6605 24.4235C18.5482 24.5359 18.3958 24.599 18.237 24.599ZM18.237 19.8073H9.70182C9.54297 19.8073 9.39062 19.7442 9.2783 19.6319C9.16597 19.5195 9.10286 19.3672 9.10286 19.2083C9.10286 19.0495 9.16597 18.8971 9.2783 18.7848C9.39062 18.6725 9.54297 18.6094 9.70182 18.6094H18.237C18.3958 18.6094 18.5482 18.6725 18.6605 18.7848C18.7728 18.8971 18.8359 19.0495 18.8359 19.2083C18.8359 19.3672 18.7728 19.5195 18.6605 19.6319C18.5482 19.7442 18.3958 19.8073 18.237 19.8073ZM40.1738 19.0586H29.7669C28.7762 19.0586 27.9701 19.8647 27.9701 20.8555V27.1445C27.9701 28.1353 28.7762 28.9414 29.7669 28.9414H40.1738C41.1646 28.9414 41.9707 28.1353 41.9707 27.1445V20.8555C41.9707 19.8647 41.1646 19.0586 40.1738 19.0586ZM32.8366 24.8984C32.3412 24.8984 31.9382 24.4954 31.9382 24C31.9382 23.5046 32.3412 23.1016 32.8366 23.1016C33.332 23.1016 33.735 23.5046 33.735 24C33.735 24.4954 33.332 24.8984 32.8366 24.8984ZM37.1042 24.8984C36.6088 24.8984 36.2057 24.4954 36.2057 24C36.2057 23.5046 36.6088 23.1016 37.1042 23.1016C37.5996 23.1016 38.0026 23.5046 38.0026 24C38.0026 24.4954 37.5996 24.8984 37.1042 24.8984ZM40.1738 32.0859H29.7669C28.7762 32.0859 27.9701 32.8921 27.9701 33.8828V40.1719C27.9701 41.1626 28.7762 41.9688 29.7669 41.9688H40.1738C41.1646 41.9688 41.9707 41.1626 41.9707 40.1719V33.8828C41.9707 32.8921 41.1646 32.0859 40.1738 32.0859ZM32.8366 37.9258C32.3412 37.9258 31.9382 37.5228 31.9382 37.0273C31.9382 36.5319 32.3412 36.1289 32.8366 36.1289C33.332 36.1289 33.735 36.5319 33.735 37.0273C33.735 37.5228 33.332 37.9258 32.8366 37.9258ZM37.1042 37.9258C36.6088 37.9258 36.2057 37.5228 36.2057 37.0273C36.2057 36.5319 36.6088 36.1289 37.1042 36.1289C37.5996 36.1289 38.0026 36.5319 38.0026 37.0273C38.0026 37.5228 37.5996 37.9258 37.1042 37.9258ZM40.1738 6.03125H29.7669C28.7762 6.03125 27.9701 6.83737 27.9701 7.82812V14.1172C27.9701 15.1079 28.7762 15.9141 29.7669 15.9141H40.1738C41.1646 15.9141 41.9707 15.1079 41.9707 14.1172V7.82812C41.9707 6.83737 41.1646 6.03125 40.1738 6.03125ZM32.8366 11.8711C32.3412 11.8711 31.9382 11.4681 31.9382 10.9727C31.9382 10.4772 32.3412 10.0742 32.8366 10.0742C33.332 10.0742 33.735 10.4772 33.735 10.9727C33.735 11.4681 33.332 11.8711 32.8366 11.8711ZM37.1042 11.8711C36.6088 11.8711 36.2057 11.4681 36.2057 10.9727C36.2057 10.4772 36.6088 10.0742 37.1042 10.0742C37.5996 10.0742 38.0026 10.4772 38.0026 10.9727C38.0026 11.4681 37.5996 11.8711 37.1042 11.8711Z" fill="#174F77"/>
</svg>
