<svg width="48" height="48" viewBox="0 0 48 48" fill="none" xmlns="http://www.w3.org/2000/svg">
<path d="M34.3657 7.5752V13.6354H40.426L34.3657 7.5752ZM23.6023 23.7344V21.409C23.6023 20.1268 22.5591 19.0836 21.2769 19.0836H9.31761C8.03537 19.0836 6.99219 20.1268 6.99219 21.409V23.7344H23.6023ZM6.99219 25.7276V38.6835C6.99219 39.9658 8.03537 41.009 9.31761 41.009H21.2769C22.5591 41.009 23.6023 39.9658 23.6023 38.6835V25.7276H6.99219ZM11.3108 38.1852C10.7604 38.1852 10.3142 37.739 10.3142 37.1886C10.3142 36.6382 10.7604 36.192 11.3108 36.192C11.8612 36.192 12.3074 36.6382 12.3074 37.1886C12.3074 37.739 11.8612 38.1852 11.3108 38.1852ZM11.3108 34.531C10.7604 34.531 10.3142 34.0848 10.3142 33.5344C10.3142 32.984 10.7604 32.5378 11.3108 32.5378C11.8612 32.5378 12.3074 32.984 12.3074 33.5344C12.3074 34.0848 11.8612 34.531 11.3108 34.531ZM11.3108 30.5446C10.7604 30.5446 10.3142 30.0984 10.3142 29.548C10.3142 28.9976 10.7604 28.5514 11.3108 28.5514C11.8612 28.5514 12.3074 28.9976 12.3074 29.548C12.3074 30.0984 11.8612 30.5446 11.3108 30.5446ZM15.2973 38.1852C14.7469 38.1852 14.3007 37.739 14.3007 37.1886C14.3007 36.6382 14.7469 36.192 15.2973 36.192C15.8477 36.192 16.2939 36.6382 16.2939 37.1886C16.2939 37.739 15.8477 38.1852 15.2973 38.1852ZM15.2973 34.531C14.7469 34.531 14.3007 34.0848 14.3007 33.5344C14.3007 32.984 14.7469 32.5378 15.2973 32.5378C15.8477 32.5378 16.2939 32.984 16.2939 33.5344C16.2939 34.0848 15.8477 34.531 15.2973 34.531ZM15.2973 30.5446C14.7469 30.5446 14.3007 30.0984 14.3007 29.548C14.3007 28.9976 14.7469 28.5514 15.2973 28.5514C15.8477 28.5514 16.2939 28.9976 16.2939 29.548C16.2939 30.0984 15.8477 30.5446 15.2973 30.5446ZM19.2837 38.1852C18.7333 38.1852 18.2871 37.739 18.2871 37.1886C18.2871 36.6382 18.7333 36.192 19.2837 36.192C19.8341 36.192 20.2803 36.6382 20.2803 37.1886C20.2803 37.739 19.8341 38.1852 19.2837 38.1852ZM19.2837 34.531C18.7333 34.531 18.2871 34.0848 18.2871 33.5344C18.2871 32.984 18.7333 32.5378 19.2837 32.5378C19.8341 32.5378 20.2803 32.984 20.2803 33.5344C20.2803 34.0848 19.8341 34.531 19.2837 34.531ZM19.2837 30.5446C18.7333 30.5446 18.2871 30.0984 18.2871 29.548C18.2871 28.9976 18.7333 28.5514 19.2837 28.5514C19.8341 28.5514 20.2803 28.9976 20.2803 29.548C20.2803 30.0984 19.8341 30.5446 19.2837 30.5446Z" fill="#174F77"/>
<path d="M34.4625 32.7899H32.2578V29.4893H34.4625C35.1082 29.4893 35.584 29.6337 35.8898 29.9226C36.1957 30.2114 36.3486 30.6192 36.3486 31.146C36.3486 31.6812 36.1914 32.089 35.8771 32.3694C35.5627 32.6497 35.0912 32.7899 34.4625 32.7899Z" fill="#174F77"/>
<path fill-rule="evenodd" clip-rule="evenodd" d="M33.3688 15.6285C32.8184 15.6285 32.3722 15.1823 32.3722 14.6319V6.99121H16.0943C15.5439 6.99121 15.0977 7.43743 15.0977 7.98782V17.0902H21.2766C23.6579 17.0902 25.5953 19.0275 25.5953 21.4088V38.6834C25.5953 39.5392 25.344 40.3369 24.9129 41.0088H40.0129C40.5633 41.0088 41.0095 40.5626 41.0095 40.0122V15.6285H33.3688ZM18.5359 8.98145H25.0884C25.5408 8.98145 25.9075 9.42766 25.9075 9.97805C25.9075 10.5284 25.5408 10.9747 25.0884 10.9747H18.5359C18.0835 10.9747 17.7168 10.5284 17.7168 9.97805C17.7168 9.42766 18.0835 8.98145 18.5359 8.98145ZM18.5359 14.9611C18.0835 14.9611 17.7168 14.5149 17.7168 13.9645C17.7168 13.4141 18.0835 12.9679 18.5359 12.9679H25.0884C25.5408 12.9679 25.9075 13.4141 25.9075 13.9645C25.9075 14.5149 25.5408 14.9611 25.0884 14.9611H18.5359ZM30.9962 35.4153V37.0465C31.0813 37.8053 32.1837 37.8051 32.2706 37.0465V35.4153H34.7301C35.2706 35.3714 35.2706 34.5799 34.7301 34.536H32.2706V33.8096H34.5262C35.1549 33.8096 35.6987 33.7119 36.1575 33.5165C36.6247 33.3126 36.9858 33.0152 37.2407 32.6244C37.4956 32.2336 37.623 31.7408 37.623 31.1461C37.623 30.5429 37.4956 30.0417 37.2407 29.6424C36.9858 29.2346 36.6247 28.9287 36.1575 28.7248C35.6987 28.5209 35.1549 28.4189 34.5262 28.4189H31.2893C31.2043 28.4189 31.1321 28.4487 31.0727 28.5082C31.0217 28.5591 30.9962 28.6313 30.9962 28.7248V32.7901H30.0149C29.3961 32.8482 29.3961 33.7515 30.0149 33.8096H30.9962V34.536H30.0149C29.4743 34.5798 29.4743 35.3715 30.0149 35.4153H30.9962Z" fill="#174F77"/>
</svg>
