<svg width="72" height="72" viewBox="0 0 72 72" fill="none" xmlns="http://www.w3.org/2000/svg">
<rect width="72" height="72" rx="36" fill="url(#paint0_linear_365_9593)"/>
<path fill-rule="evenodd" clip-rule="evenodd" d="M26 22C23.7909 22 22 23.7909 22 26V46C22 48.2091 23.7909 50 26 50H46C48.2091 50 50 48.2091 50 46V26C50 23.7909 48.2091 22 46 22H26ZM45 26H36C35.4477 26 35 26.4477 35 27C35 27.5523 35.4477 28 36 28H42.5858L28 42.5858V36C28 35.4477 27.5523 35 27 35C26.4477 35 26 35.4477 26 36V45C26 45.5523 26.4477 46 27 46H36C36.5523 46 37 45.5523 37 45C37 44.4477 36.5523 44 36 44H29.4142L44 29.4142V36C44 36.5523 44.4477 37 45 37C45.5523 37 46 36.5523 46 36V27C46 26.4477 45.5523 26 45 26Z" fill="white"/>
<defs>
<linearGradient id="paint0_linear_365_9593" x1="-46.125" y1="79.2" x2="37.6374" y2="-47.0803" gradientUnits="userSpaceOnUse">
<stop stop-color="#4098FF"/>
<stop offset="1" stop-color="#AE6EFF"/>
</linearGradient>
</defs>
</svg>
