<svg width="72" height="72" viewBox="0 0 72 72" fill="none" xmlns="http://www.w3.org/2000/svg">
<rect width="72" height="72" rx="36" fill="url(#paint0_linear_365_9600)"/>
<path d="M36 20C27.325 20 20 27.3263 20 36C20 44.6737 27.325 52 36 52C44.6731 52 52 44.6731 52 36C52 27.3269 44.6731 20 36 20ZM36 28C38.7625 28 40.8 30.0356 40.8 32.8C40.8 35.5656 38.7625 37.6 36 37.6C33.2375 37.6 31.2 35.5656 31.2 32.8C31.2 30.0356 33.2375 28 36 28ZM27.83 43.6356C29.2656 41.5231 31.6581 40.1156 34.4 40.1156H37.6C40.3425 40.1156 42.7344 41.5231 44.1688 43.6356C42.1231 45.8231 39.2238 47.2 36 47.2C32.775 47.2 29.875 45.8231 27.83 43.6356Z" fill="white"/>
<defs>
<linearGradient id="paint0_linear_365_9600" x1="-46.125" y1="79.2" x2="37.6374" y2="-47.0803" gradientUnits="userSpaceOnUse">
<stop stop-color="#704CFD"/>
<stop offset="1" stop-color="#E751FF"/>
</linearGradient>
</defs>
</svg>
