<svg width="72" height="72" viewBox="0 0 72 72" fill="none" xmlns="http://www.w3.org/2000/svg">
<rect width="72" height="72" rx="36" fill="url(#paint0_linear_365_9604)"/>
<path d="M44.2338 50C43.963 50.0001 43.6962 49.9358 43.4565 49.8128L35.9983 45.9839L28.5402 49.8063C28.2647 49.9476 27.9542 50.0109 27.6437 49.989C27.3333 49.9672 27.0353 49.861 26.7835 49.6825C26.5317 49.504 26.3361 49.2602 26.2188 48.9789C26.1015 48.6976 26.0672 48.3898 26.1197 48.0904L27.5443 39.9835L21.504 34.2435C21.281 34.0314 21.1232 33.7626 21.0486 33.4675C20.974 33.1725 20.9855 32.8629 21.0818 32.5739C21.1782 32.2849 21.3555 32.0279 21.5937 31.8322C21.832 31.6364 22.1216 31.5097 22.4298 31.4663L30.7704 30.2828L34.502 22.9068C34.6399 22.6344 34.8531 22.4052 35.1176 22.2449C35.382 22.0847 35.6871 21.9999 35.9983 22C36.3106 21.9991 36.6169 22.0838 36.8823 22.2443C37.1477 22.4049 37.3616 22.635 37.4996 22.9084L41.2296 30.2828L49.5702 31.4663C49.8784 31.5097 50.168 31.6364 50.4063 31.8322C50.6445 32.0279 50.8218 32.2849 50.9182 32.5739C51.0145 32.8629 51.026 33.1725 50.9514 33.4675C50.8768 33.7626 50.719 34.0314 50.496 34.2435L44.4607 39.9851L45.8853 48.0921C45.9273 48.3267 45.916 48.5674 45.8522 48.7973C45.7885 49.0272 45.6738 49.2406 45.5163 49.4226C45.3589 49.6045 45.1624 49.7505 44.9408 49.8503C44.7192 49.95 44.4779 50.0011 44.2338 50Z" fill="white"/>
<defs>
<linearGradient id="paint0_linear_365_9604" x1="-46.125" y1="79.2" x2="37.6374" y2="-47.0803" gradientUnits="userSpaceOnUse">
<stop stop-color="#3655F4"/>
<stop offset="1" stop-color="#50CBFF"/>
</linearGradient>
</defs>
</svg>
