<svg width="72" height="72" viewBox="0 0 72 72" fill="none" xmlns="http://www.w3.org/2000/svg">
<rect width="72" height="72" rx="36" fill="url(#paint0_linear_365_9589)"/>
<path d="M36 20C27.1635 20 20 27.1635 20 36C20 44.8365 27.1635 52 36 52C44.8365 52 52 44.8365 52 36C52 27.1635 44.8365 20 36 20ZM46.2789 38.6033C46.0207 38.9867 45.6208 39.2519 45.1671 39.3403C45.0563 39.362 44.9445 39.3726 44.8333 39.3726C44.4889 39.3726 44.1495 39.2706 43.8597 39.0753L40.6307 36.9007C39.8323 36.3631 39.621 35.2799 40.1587 34.4815C40.6645 33.7306 41.6524 33.4992 42.4324 33.9215C41.5629 31.3448 39.123 29.4843 36.2567 29.4843C32.6639 29.4843 29.741 32.4072 29.741 36C29.741 39.5928 32.6639 42.5157 36.2567 42.5157C37.2193 42.5157 37.9996 43.2961 37.9996 44.2586C37.9996 45.2212 37.2193 46.0016 36.2567 46.0016C30.7418 46.0016 26.2551 41.5149 26.2551 36C26.2551 30.4851 30.7418 25.9984 36.2567 25.9984C40.7683 25.9984 44.5911 29.0015 45.8329 33.1134C46.4131 32.5831 47.3006 32.4966 47.9815 32.9551C48.7799 33.4928 48.9912 34.576 48.4536 35.3744L46.2789 38.6033Z" fill="white"/>
<defs>
<linearGradient id="paint0_linear_365_9589" x1="-46.125" y1="79.2" x2="37.6374" y2="-47.0803" gradientUnits="userSpaceOnUse">
<stop stop-color="#FA3B21"/>
<stop offset="1" stop-color="#DBFF00"/>
</linearGradient>
</defs>
</svg>
