<svg width="16" height="16" viewBox="0 0 16 16" fill="none" xmlns="http://www.w3.org/2000/svg">
<path d="M2.74321 8.35167C1.84431 6.78231 1.54481 5.39014 1.45905 4.44399C1.38363 3.61206 1.78438 2.84552 2.37505 2.25485L2.58137 2.04853C3.0414 1.58851 3.81126 1.68328 4.14597 2.24114L5.50968 4.51398C5.74577 4.90746 5.68376 5.41112 5.35929 5.73559L2.74321 8.35167ZM2.74321 8.35167C3.24223 9.22289 3.92597 10.1487 4.86043 11.0832C7.48007 13.7028 10.032 14.3521 11.5028 14.4849C12.333 14.5598 13.0973 14.16 13.6867 13.5706L13.8951 13.3622C14.3551 12.9022 14.2603 12.1324 13.7025 11.7976L11.4297 10.4339C11.0362 10.1978 10.5325 10.2598 10.208 10.5843L7.68888 13.1035" stroke="#174F77" stroke-linecap="round" stroke-linejoin="round"/>
</svg>
