<svg width="648" height="448" viewBox="0 0 648 448" fill="none" xmlns="http://www.w3.org/2000/svg">
<g clip-path="url(#clip0_375_8347)">
<rect width="648" height="448" fill="url(#paint0_radial_375_8347)"/>
<g filter="url(#filter0_f_375_8347)">
<circle cx="621.5" cy="235.5" r="342.5" fill="#0D619B"/>
</g>
<g opacity="0.7" filter="url(#filter1_f_375_8347)">
<circle cx="519.5" cy="141.5" r="334.5" fill="url(#paint1_linear_375_8347)"/>
</g>
<g filter="url(#filter2_f_375_8347)">
<circle cx="104.5" cy="488.5" r="225.5" fill="url(#paint2_linear_375_8347)"/>
</g>
<path d="M508.401 411.132L365.181 394.874L399.987 360.024L28.575 -11.388L85.8812 -68.6941L457.293 302.718L492.144 267.912L508.401 411.132Z" fill="url(#paint3_linear_375_8347)"/>
<path d="M516.71 154.288L406.409 141.803L433.221 114.946L274.282 -43.9931L318.384 -88.0955L477.368 70.8436L504.18 44.0319L516.71 154.288Z" fill="url(#paint4_linear_375_8347)"/>
<path d="M252.455 411.132L150.822 399.59L175.568 374.889L18.1557 217.477L58.8 176.833L216.212 334.245L240.913 309.499L252.455 411.132Z" fill="url(#paint5_linear_375_8347)"/>
<path d="M478.446 181.953L567.01 270.517L571.007 266.52L482.443 177.956L478.446 181.953Z" fill="url(#paint6_linear_375_8347)"/>
<path d="M529 -22.0029L617.564 66.561L621.561 62.564L532.997 -26L529 -22.0029Z" fill="url(#paint7_linear_375_8347)"/>
<path d="M277.111 368.467L332.755 424.156L337.561 419.351L281.916 363.662L277.111 368.467Z" fill="url(#paint8_linear_375_8347)"/>
<path d="M-31 331.805L24.6444 387.495L29.4498 382.689L-26.1946 327L-31 331.805Z" fill="url(#paint9_linear_375_8347)"/>
<path d="M226.721 -9.68122L366.888 130.485L370.121 127.252L229.955 -12.9148L226.721 -9.68122Z" fill="url(#paint10_linear_375_8347)"/>
<path d="M16 283.496L107.079 374.62L110.537 371.162L19.4133 280.083L16 283.496Z" fill="url(#paint11_linear_375_8347)"/>
<path d="M-11 28.4132L80.079 119.537L83.5371 116.079L-7.58673 25L-11 28.4132Z" fill="url(#paint12_linear_375_8347)"/>
<path d="M46.3597 -29.1727L103.666 -86.4788L475.078 284.933L509.928 250.127L526.186 393.348L382.966 377.09L417.816 342.239L46.3597 -29.1727ZM386.154 375.967L524.479 391.686L508.761 253.361L476.111 286.011L475.078 287.044L474.045 286.011L103.666 -84.368L48.4705 -29.1727L418.804 341.206L419.837 342.239L418.804 343.272L386.154 375.967Z" fill="url(#paint13_linear_375_8347)"/>
<path d="M301.947 -51.8977L346.049 -96L495.108 53.0587L521.919 26.247L534.494 136.548L424.194 124.018L451.005 97.206L301.947 -51.8977ZM427.427 122.895L532.788 134.841L520.842 29.4357L496.186 54.0917L495.153 55.1246L494.12 54.0917L346.049 -93.8892L304.013 -51.8527L452.038 96.1281L453.071 97.1611L452.038 98.194L427.427 122.895Z" fill="url(#paint14_linear_375_8347)"/>
<path d="M35.9404 199.737L76.5846 159.093L233.997 316.46L258.698 291.759L270.24 393.392L168.607 381.85L193.308 357.149L35.9404 199.737ZM171.84 380.683L268.578 391.686L257.575 294.948L235.03 317.493L233.997 318.526L232.964 317.493L76.6295 161.159L38.0512 199.737L194.385 356.071L195.418 357.104L194.385 358.137L171.84 380.683Z" fill="url(#paint15_linear_375_8347)"/>
</g>
<defs>
<filter id="filter0_f_375_8347" x="-121" y="-507" width="1485" height="1485" filterUnits="userSpaceOnUse" color-interpolation-filters="sRGB">
<feFlood flood-opacity="0" result="BackgroundImageFix"/>
<feBlend mode="normal" in="SourceGraphic" in2="BackgroundImageFix" result="shape"/>
<feGaussianBlur stdDeviation="200" result="effect1_foregroundBlur_375_8347"/>
</filter>
<filter id="filter1_f_375_8347" x="-35" y="-413" width="1109" height="1109" filterUnits="userSpaceOnUse" color-interpolation-filters="sRGB">
<feFlood flood-opacity="0" result="BackgroundImageFix"/>
<feBlend mode="normal" in="SourceGraphic" in2="BackgroundImageFix" result="shape"/>
<feGaussianBlur stdDeviation="110" result="effect1_foregroundBlur_375_8347"/>
</filter>
<filter id="filter2_f_375_8347" x="-921" y="-537" width="2051" height="2051" filterUnits="userSpaceOnUse" color-interpolation-filters="sRGB">
<feFlood flood-opacity="0" result="BackgroundImageFix"/>
<feBlend mode="normal" in="SourceGraphic" in2="BackgroundImageFix" result="shape"/>
<feGaussianBlur stdDeviation="400" result="effect1_foregroundBlur_375_8347"/>
</filter>
<radialGradient id="paint0_radial_375_8347" cx="0" cy="0" r="1" gradientUnits="userSpaceOnUse" gradientTransform="translate(324 224) rotate(90) scale(351 507.696)">
<stop stop-color="#1D689F"/>
<stop offset="1" stop-color="#174F77"/>
</radialGradient>
<linearGradient id="paint1_linear_375_8347" x1="640.987" y1="-20.1531" x2="365.09" y2="403.24" gradientUnits="userSpaceOnUse">
<stop stop-color="#33E4D0"/>
<stop offset="0.531292" stop-color="#4CCABB" stop-opacity="0.311997"/>
<stop offset="0.691961" stop-color="#4CCABB" stop-opacity="0.194775"/>
<stop offset="0.832272" stop-color="#4CCABB" stop-opacity="0.0811772"/>
<stop offset="1" stop-color="#4CCABB" stop-opacity="0"/>
</linearGradient>
<linearGradient id="paint2_linear_375_8347" x1="121.235" y1="488.5" x2="229.252" y2="248.632" gradientUnits="userSpaceOnUse">
<stop stop-color="#3BB5FA"/>
<stop offset="1" stop-color="#3BB5FA" stop-opacity="0"/>
</linearGradient>
<linearGradient id="paint3_linear_375_8347" x1="71.6802" y1="-25.5967" x2="509.08" y2="411.802" gradientUnits="userSpaceOnUse">
<stop stop-color="white" stop-opacity="0"/>
<stop offset="1" stop-color="white" stop-opacity="0.07"/>
</linearGradient>
<linearGradient id="paint4_linear_375_8347" x1="296.06" y1="-66.3249" x2="517.012" y2="154.667" gradientUnits="userSpaceOnUse">
<stop stop-color="white" stop-opacity="0"/>
<stop offset="1" stop-color="white" stop-opacity="0.07"/>
</linearGradient>
<linearGradient id="paint5_linear_375_8347" x1="39.204" y1="197.877" x2="252.786" y2="411.459" gradientUnits="userSpaceOnUse">
<stop stop-color="white" stop-opacity="0"/>
<stop offset="1" stop-color="white" stop-opacity="0.07"/>
</linearGradient>
<linearGradient id="paint6_linear_375_8347" x1="479.756" y1="179.269" x2="568.292" y2="267.806" gradientUnits="userSpaceOnUse">
<stop offset="0.15" stop-color="white" stop-opacity="0"/>
<stop offset="1" stop-color="white" stop-opacity="0.08"/>
</linearGradient>
<linearGradient id="paint7_linear_375_8347" x1="530.31" y1="-24.6864" x2="618.846" y2="63.85" gradientUnits="userSpaceOnUse">
<stop offset="0.15" stop-color="white" stop-opacity="0"/>
<stop offset="1" stop-color="white" stop-opacity="0.08"/>
</linearGradient>
<linearGradient id="paint8_linear_375_8347" x1="277.966" y1="364.52" x2="335.831" y2="422.342" gradientUnits="userSpaceOnUse">
<stop offset="0.15" stop-color="white" stop-opacity="0"/>
<stop offset="1" stop-color="white" stop-opacity="0.08"/>
</linearGradient>
<linearGradient id="paint9_linear_375_8347" x1="-30.1446" y1="327.859" x2="27.7198" y2="385.68" gradientUnits="userSpaceOnUse">
<stop offset="0.15" stop-color="white" stop-opacity="0"/>
<stop offset="1" stop-color="white" stop-opacity="0.08"/>
</linearGradient>
<linearGradient id="paint10_linear_375_8347" x1="228.751" y1="-10.8796" x2="365.915" y2="126.285" gradientUnits="userSpaceOnUse">
<stop offset="0.15" stop-color="white" stop-opacity="0"/>
<stop offset="1" stop-color="white" stop-opacity="0.08"/>
</linearGradient>
<linearGradient id="paint11_linear_375_8347" x1="17.3378" y1="281.424" x2="107.764" y2="371.851" gradientUnits="userSpaceOnUse">
<stop offset="0.15" stop-color="white" stop-opacity="0"/>
<stop offset="1" stop-color="white" stop-opacity="0.08"/>
</linearGradient>
<linearGradient id="paint12_linear_375_8347" x1="-9.66216" y1="26.3417" x2="80.7644" y2="116.768" gradientUnits="userSpaceOnUse">
<stop offset="0.15" stop-color="white" stop-opacity="0"/>
<stop offset="1" stop-color="white" stop-opacity="0.08"/>
</linearGradient>
<linearGradient id="paint13_linear_375_8347" x1="87.9831" y1="-44.9045" x2="526.167" y2="393.279" gradientUnits="userSpaceOnUse">
<stop offset="0.15" stop-color="white" stop-opacity="0"/>
<stop offset="0.85" stop-color="#66DEDE"/>
</linearGradient>
<linearGradient id="paint14_linear_375_8347" x1="322.119" y1="-75.851" x2="534.485" y2="136.515" gradientUnits="userSpaceOnUse">
<stop offset="0.15" stop-color="white" stop-opacity="0"/>
<stop offset="0.85" stop-color="#66DEDE"/>
</linearGradient>
<linearGradient id="paint15_linear_375_8347" x1="56.2651" y1="179.394" x2="270.23" y2="393.359" gradientUnits="userSpaceOnUse">
<stop offset="0.15" stop-color="white" stop-opacity="0"/>
<stop offset="0.85" stop-color="#66DEDE"/>
</linearGradient>
<clipPath id="clip0_375_8347">
<rect width="648" height="448" fill="white"/>
</clipPath>
</defs>
</svg>
