<svg width="32" height="32" viewBox="0 0 32 32" fill="none" xmlns="http://www.w3.org/2000/svg">
<path fill-rule="evenodd" clip-rule="evenodd" d="M13.5801 7.54476C13.5801 7.22442 13.7073 6.9172 13.9338 6.69068C14.1604 6.46417 14.4676 6.33691 14.7879 6.33691H26.8664C27.1867 6.33691 27.4939 6.46417 27.7205 6.69068C27.947 6.9172 28.0742 7.22442 28.0742 7.54476C28.0742 7.8651 27.947 8.17232 27.7205 8.39883C27.4939 8.62535 27.1867 8.7526 26.8664 8.7526H14.7879C14.4676 8.7526 14.1604 8.62535 13.9338 8.39883C13.7073 8.17232 13.5801 7.8651 13.5801 7.54476ZM13.5801 15.9997C13.5801 15.6793 13.7073 15.3721 13.9338 15.1456C14.1604 14.9191 14.4676 14.7918 14.7879 14.7918H26.8664C27.1867 14.7918 27.4939 14.9191 27.7205 15.1456C27.947 15.3721 28.0742 15.6793 28.0742 15.9997C28.0742 16.32 27.947 16.6272 27.7205 16.8538C27.4939 17.0803 27.1867 17.2075 26.8664 17.2075H14.7879C14.4676 17.2075 14.1604 17.0803 13.9338 16.8538C13.7073 16.6272 13.5801 16.32 13.5801 15.9997ZM13.5801 24.4546C13.5801 24.1343 13.7073 23.827 13.9338 23.6005C14.1604 23.374 14.4676 23.2467 14.7879 23.2467H26.8664C27.1867 23.2467 27.4939 23.374 27.7205 23.6005C27.947 23.827 28.0742 24.1343 28.0742 24.4546C28.0742 24.7749 27.947 25.0822 27.7205 25.3087C27.4939 25.5352 27.1867 25.6624 26.8664 25.6624H14.7879C14.4676 25.6624 14.1604 25.5352 13.9338 25.3087C13.7073 25.0822 13.5801 24.7749 13.5801 24.4546Z" fill="white"/>
<path fill-rule="evenodd" clip-rule="evenodd" d="M7.5415 6.33708C7.22116 6.33708 6.91394 6.46433 6.68743 6.69085C6.46091 6.91736 6.33366 7.22458 6.33366 7.54492C6.33366 7.86526 6.46091 8.17248 6.68743 8.399C6.91394 8.62551 7.22116 8.75277 7.5415 8.75277C7.86184 8.75277 8.16906 8.62551 8.39558 8.399C8.62209 8.17248 8.74935 7.86526 8.74935 7.54492C8.74935 7.22458 8.62209 6.91736 8.39558 6.69085C8.16906 6.46433 7.86184 6.33708 7.5415 6.33708ZM3.91797 7.54492C3.91797 6.5839 4.29973 5.66224 4.97928 4.9827C5.65882 4.30315 6.58048 3.92139 7.5415 3.92139C8.50253 3.92139 9.42419 4.30315 10.1037 4.9827C10.7833 5.66224 11.165 6.5839 11.165 7.54492C11.165 8.50594 10.7833 9.4276 10.1037 10.1071C9.42419 10.7867 8.50253 11.1685 7.5415 11.1685C6.58048 11.1685 5.65882 10.7867 4.97928 10.1071C4.29973 9.4276 3.91797 8.50594 3.91797 7.54492Z" fill="white"/>
<path fill-rule="evenodd" clip-rule="evenodd" d="M7.5415 6.33708C7.22116 6.33708 6.91394 6.46433 6.68743 6.69085C6.46091 6.91736 6.33366 7.22458 6.33366 7.54492C6.33366 7.86526 6.46091 8.17248 6.68743 8.399C6.91394 8.62551 7.22116 8.75277 7.5415 8.75277C7.86184 8.75277 8.16906 8.62551 8.39558 8.399C8.62209 8.17248 8.74935 7.86526 8.74935 7.54492C8.74935 7.22458 8.62209 6.91736 8.39558 6.69085C8.16906 6.46433 7.86184 6.33708 7.5415 6.33708ZM3.91797 7.54492C3.91797 6.5839 4.29973 5.66224 4.97928 4.9827C5.65882 4.30315 6.58048 3.92139 7.5415 3.92139C8.50253 3.92139 9.42419 4.30315 10.1037 4.9827C10.7833 5.66224 11.165 6.5839 11.165 7.54492C11.165 8.50594 10.7833 9.4276 10.1037 10.1071C9.42419 10.7867 8.50253 11.1685 7.5415 11.1685C6.58048 11.1685 5.65882 10.7867 4.97928 10.1071C4.29973 9.4276 3.91797 8.50594 3.91797 7.54492Z" fill="white"/>
<path fill-rule="evenodd" clip-rule="evenodd" d="M7.5415 14.7922C7.22116 14.7922 6.91394 14.9194 6.68743 15.1459C6.46091 15.3724 6.33366 15.6797 6.33366 16C6.33366 16.3203 6.46091 16.6276 6.68743 16.8541C6.91394 17.0806 7.22116 17.2078 7.5415 17.2078C7.86184 17.2078 8.16906 17.0806 8.39558 16.8541C8.62209 16.6276 8.74935 16.3203 8.74935 16C8.74935 15.6797 8.62209 15.3724 8.39558 15.1459C8.16906 14.9194 7.86184 14.7922 7.5415 14.7922ZM3.91797 16C3.91797 15.039 4.29973 14.1173 4.97928 13.4378C5.65882 12.7582 6.58048 12.3765 7.5415 12.3765C8.50253 12.3765 9.42419 12.7582 10.1037 13.4378C10.7833 14.1173 11.165 15.039 11.165 16C11.165 16.961 10.7833 17.8827 10.1037 18.5622C9.42419 19.2418 8.50253 19.6235 7.5415 19.6235C6.58048 19.6235 5.65882 19.2418 4.97928 18.5622C4.29973 17.8827 3.91797 16.961 3.91797 16Z" fill="white"/>
<path fill-rule="evenodd" clip-rule="evenodd" d="M7.5415 23.2467C7.22116 23.2467 6.91394 23.374 6.68743 23.6005C6.46091 23.827 6.33366 24.1342 6.33366 24.4546C6.33366 24.7749 6.46091 25.0822 6.68743 25.3087C6.91394 25.5352 7.22116 25.6624 7.5415 25.6624C7.86184 25.6624 8.16906 25.5352 8.39558 25.3087C8.62209 25.0822 8.74935 24.7749 8.74935 24.4546C8.74935 24.1342 8.62209 23.827 8.39558 23.6005C8.16906 23.374 7.86184 23.2467 7.5415 23.2467ZM3.91797 24.4546C3.91797 23.4936 4.29973 22.5719 4.97928 21.8924C5.65882 21.2128 6.58048 20.8311 7.5415 20.8311C8.50253 20.8311 9.42419 21.2128 10.1037 21.8924C10.7833 22.5719 11.165 23.4936 11.165 24.4546C11.165 25.4156 10.7833 26.3373 10.1037 27.0168C9.42419 27.6964 8.50253 28.0781 7.5415 28.0781C6.58048 28.0781 5.65882 27.6964 4.97928 27.0168C4.29973 26.3373 3.91797 25.4156 3.91797 24.4546Z" fill="white"/>
</svg>
