<svg width="32" height="32" viewBox="0 0 32 32" fill="none" xmlns="http://www.w3.org/2000/svg">
<path d="M22.9758 20.4373C22.7542 18.9313 22.0001 17.5547 20.8504 16.5571C19.7006 15.5595 18.2314 15.0071 16.7092 15H15.2905C13.7683 15.0071 12.2991 15.5595 11.1493 16.5571C9.99956 17.5547 9.24547 18.9313 9.02384 20.4373L8.34383 25.192C8.32211 25.3457 8.33647 25.5023 8.38576 25.6495C8.43505 25.7967 8.51793 25.9304 8.62784 26.04C8.8945 26.3067 10.5305 27.6667 16.0012 27.6667C21.4718 27.6667 23.1038 26.312 23.3745 26.04C23.4844 25.9304 23.5673 25.7967 23.6166 25.6495C23.6659 25.5023 23.6802 25.3457 23.6585 25.192L22.9758 20.4373ZM10.0785 15.7333C8.78988 16.9213 7.95143 18.5181 7.70517 20.2533L7.21183 23.6667C3.25183 23.64 2.05184 22.2 1.85183 21.9067C1.77453 21.8001 1.71936 21.6791 1.68959 21.5509C1.65981 21.4226 1.65605 21.2897 1.6785 21.16L1.97184 19.5067C2.12466 18.6426 2.4836 17.8281 3.0182 17.1323C3.5528 16.4365 4.24731 15.8798 5.04283 15.5095C5.83836 15.1393 6.71144 14.9663 7.58805 15.0052C8.46467 15.0442 9.31896 15.2939 10.0785 15.7333ZM30.3185 21.16C30.341 21.2897 30.3372 21.4226 30.3074 21.5509C30.2776 21.6791 30.2225 21.8001 30.1452 21.9067C29.9452 22.2 28.7452 23.64 24.7852 23.6667L24.2918 20.2533C24.0456 18.5181 23.2071 16.9213 21.9185 15.7333C22.678 15.2939 23.5323 15.0442 24.409 15.0052C25.2856 14.9663 26.1586 15.1393 26.9542 15.5095C27.7497 15.8798 28.4442 16.4365 28.9788 17.1323C29.5134 17.8281 29.8723 18.6426 30.0252 19.5067L30.3185 21.16ZM10.3052 12.8C9.96954 13.276 9.52398 13.6639 9.00633 13.9309C8.48869 14.1978 7.91425 14.3359 7.33183 14.3333C6.75084 14.3333 6.17817 14.1953 5.66101 13.9305C5.14384 13.6658 4.69699 13.2819 4.35728 12.8106C4.01757 12.3393 3.79472 11.794 3.7071 11.2196C3.61949 10.6453 3.6696 10.0583 3.85333 9.50717C4.03705 8.95599 4.34913 8.45636 4.76383 8.04946C5.17853 7.64255 5.68399 7.34002 6.23855 7.16679C6.79312 6.99355 7.38091 6.95458 7.95349 7.05308C8.52607 7.15159 9.06704 7.38474 9.53184 7.73334C9.39815 8.25614 9.33095 8.79371 9.33183 9.33334C9.33285 10.5562 9.66953 11.7553 10.3052 12.8ZM28.3318 10.6667C28.3322 11.1483 28.2376 11.6252 28.0534 12.0703C27.8693 12.5153 27.5992 12.9196 27.2587 13.2602C26.9181 13.6007 26.5138 13.8708 26.0688 14.0549C25.6237 14.2391 25.1468 14.3337 24.6652 14.3333C24.0828 14.3359 23.5083 14.1978 22.9907 13.9309C22.473 13.6639 22.0275 13.276 21.6918 12.8C22.3275 11.7553 22.6642 10.5562 22.6652 9.33334C22.6661 8.79371 22.5989 8.25614 22.4652 7.73334C23.0099 7.32477 23.6577 7.07597 24.3359 7.01482C25.0141 6.95367 25.6959 7.08257 26.305 7.3871C26.914 7.69163 27.4262 8.15974 27.7842 8.73899C28.1422 9.31823 28.3318 9.98572 28.3318 10.6667Z" fill="white"/>
<path d="M16 14.3335C18.7614 14.3335 21 12.0949 21 9.3335C21 6.57207 18.7614 4.3335 16 4.3335C13.2386 4.3335 11 6.57207 11 9.3335C11 12.0949 13.2386 14.3335 16 14.3335Z" fill="white"/>
</svg>
