<svg width="32" height="32" viewBox="0 0 32 32" fill="none" xmlns="http://www.w3.org/2000/svg">
<path d="M12.2144 15.0422C8.82624 15.0422 5.66965 14.0996 3.53615 12.6661C3.51351 12.6508 3.49092 12.6355 3.4688 12.6202V15.5437C3.89665 15.9526 4.43819 16.3462 5.07656 16.7041C7.01111 17.7882 9.61253 18.4103 12.2144 18.4103C13.227 18.4103 14.2206 18.334 15.17 18.186V14.8347C14.2132 14.9716 13.2206 15.0422 12.2144 15.0422ZM15.1699 20.7912V19.7818C14.2132 19.9187 13.2206 19.9892 12.2144 19.9892C8.81992 19.9892 5.65806 19.0435 3.52457 17.6046C3.50561 17.5925 3.48718 17.5799 3.4688 17.5673V20.7807C3.84826 21.1043 4.2998 21.4154 4.81343 21.7038C6.74798 22.7879 9.34939 23.4099 11.9513 23.4099C13.348 23.4099 14.7089 23.2647 15.9678 22.9874C15.4594 22.3847 15.1699 21.6138 15.1699 20.7912ZM20.9426 26.1292L20.8889 26.1002L17.6276 24.183C15.9035 24.7082 13.9558 24.9887 11.9512 24.9887C8.66521 24.9887 5.59703 24.1024 3.46875 22.741V25.7812C3.46875 28.21 7.87892 29.4804 12.2354 29.4804C16.3708 29.4804 20.5547 28.3353 20.9678 26.1412C20.9594 26.1376 20.951 26.1334 20.9426 26.1292ZM12.2354 2.51953C8.01614 2.51953 3.74705 3.71124 3.48202 5.99186C3.85342 6.30396 4.29101 6.60422 4.78773 6.88246C6.72197 7.96654 9.32364 8.58822 11.9255 8.58822C14.6029 8.58822 17.1498 8.05358 19.0969 7.08278C19.8721 6.69626 20.5026 6.2591 20.957 5.80576C20.4873 3.64641 16.3376 2.51953 12.2354 2.51953Z" fill="white"/>
<path d="M19.8011 8.49574C17.6397 9.57355 14.8425 10.1672 11.9254 10.1672C8.65252 10.1672 5.59593 9.23459 3.46875 7.88259V10.7019C3.8966 11.1107 4.38553 11.3992 5.0239 11.757C6.95845 12.8411 9.61247 13.4632 12.2144 13.4632C13.2269 13.4632 14.2205 13.3869 15.1699 13.239V12.3333C15.1699 11.6659 15.6167 11.0807 16.2582 10.9044L21.0015 9.51821V7.79834C20.6389 8.04473 20.2389 8.27732 19.8011 8.49574ZM27.6316 12.1028L22.7318 10.6707L22.7121 10.6652C22.5633 10.6259 22.4069 10.6259 22.2582 10.6652L17.3387 12.1028C16.8083 12.2487 16.439 12.7323 16.439 13.2836V20.2743C16.439 21.3363 17.0229 22.2942 17.9649 22.7807L21.1659 24.6622L21.2102 24.6864C21.6094 24.8878 22.0473 24.9886 22.4851 24.9886C22.923 24.9886 23.3609 24.8878 23.76 24.6864L23.7826 24.675L27.0054 22.7807C27.9473 22.2941 28.5313 21.3363 28.5313 20.2743V13.2836C28.5313 12.7323 28.162 12.2488 27.6316 12.1028ZM25.3373 16.907L22.1137 19.89C22.1071 19.8961 22.1 19.9013 22.0933 19.9071C22.084 19.9152 22.0747 19.9232 22.0652 19.9308C22.0543 19.9393 22.0432 19.9472 22.0319 19.9552C22.0221 19.9621 22.0123 19.9692 22.0022 19.9757C21.9904 19.9832 21.9784 19.99 21.9664 19.9968C21.9564 20.0025 21.9465 20.0083 21.9364 20.0135C21.9235 20.0201 21.9105 20.0258 21.8974 20.0317C21.8875 20.036 21.8779 20.0407 21.8679 20.0446C21.8539 20.0501 21.8397 20.0548 21.8254 20.0595C21.816 20.0626 21.8067 20.066 21.7972 20.0688C21.7819 20.0732 21.7663 20.0766 21.7507 20.0802C21.7421 20.0821 21.7336 20.0845 21.7249 20.0862C21.7075 20.0895 21.6898 20.0916 21.6723 20.0938C21.6653 20.0946 21.6585 20.096 21.6515 20.0966C21.6269 20.099 21.6023 20.1002 21.5777 20.1002H21.5775C21.5515 20.1002 21.5256 20.0988 21.4997 20.0963C21.4925 20.0955 21.4852 20.0941 21.478 20.0931C21.4594 20.0908 21.441 20.0884 21.4227 20.0847C21.4135 20.0829 21.4045 20.0802 21.3954 20.0781C21.3792 20.0743 21.3629 20.0705 21.347 20.0657C21.337 20.0626 21.3272 20.0588 21.3173 20.0553C21.3025 20.0501 21.2877 20.0451 21.2732 20.039C21.2627 20.0347 21.2525 20.0295 21.2422 20.0247C21.2287 20.0183 21.2152 20.0121 21.202 20.0049C21.1913 19.9991 21.181 19.9926 21.1705 19.9863C21.1582 19.9789 21.1459 19.9715 21.1339 19.9634C21.1233 19.9561 21.1132 19.9483 21.1028 19.9405C21.0914 19.932 21.0802 19.9233 21.0693 19.9142C21.0593 19.9058 21.0497 19.8967 21.04 19.8877C21.0331 19.8813 21.0257 19.8755 21.019 19.8688L19.6106 18.4602C19.3023 18.1519 19.3023 17.6521 19.6106 17.3438C19.9189 17.0355 20.4188 17.0355 20.727 17.3438L21.5985 18.2153L24.2647 15.7481C24.5846 15.4519 25.0841 15.4714 25.3803 15.7914C25.6766 16.1114 25.6573 16.6108 25.3373 16.907Z" fill="white"/>
</svg>
